<svg xmlns="http://www.w3.org/2000/svg" width="18" height="18"><path fill="#aaa8c3" d="M10.867 2.243a1.06 1.06 0 0 0-.34-.786 1.112 1.112 0 0 0-.804-.332H2.287c-.31 0-.578.11-.804.332a1.06 1.06 0 0 0-.34.786v.56h9.724zm0 1.695H1.143v7.312h9.724zm0 8.437H1.143v3.375c0 .305.113.568.34.791.226.223.494.334.804.334h7.436c.31 0 .578-.111.805-.334.226-.223.34-.486.34-.791zM11.33.659c.447.44.67.97.67 1.591v13.5a2.15 2.15 0 0 1-.67 1.59 2.22 2.22 0 0 1-1.616.66H2.286a2.22 2.22 0 0 1-1.616-.66A2.15 2.15 0 0 1 0 15.75V2.25C0 1.629.223 1.099.67.66A2.22 2.22 0 0 1 2.286 0h7.428c.631 0 1.17.22 1.616.66zM5.195 15.416a1.075 1.075 0 0 1-.338-.791c0-.305.113-.568.338-.791a1.1 1.1 0 0 1 .8-.334 1.1 1.1 0 0 1 .8.334c.225.223.338.486.338.791 0 .305-.113.568-.338.791a1.1 1.1 0 0 1-.8.334 1.1 1.1 0 0 1-.8-.334z"/></svg>