<svg xmlns="http://www.w3.org/2000/svg" width="18" height="18"><path fill="#aaa8c3" d="M8.24 7.945c.34-.328.51-.726.51-1.195 0-.469-.17-.867-.51-1.195A1.72 1.72 0 0 0 7 5.063c-.486 0-.9.164-1.24.492-.34.328-.51.726-.51 1.195 0 .469.17.867.51 1.195.34.328.754.492 1.24.492s.9-.164 1.24-.492zm.828-3.181c.573.55.859 1.213.859 1.986 0 .773-.286 1.436-.859 1.986a2.867 2.867 0 0 1-2.063.826 2.869 2.869 0 0 1-2.063-.826c-.573-.55-.859-1.213-.859-1.986 0-.773.286-1.436.859-1.986a2.869 2.869 0 0 1 2.063-.826c.803 0 1.491.275 2.063.826zM9.725.527a7.103 7.103 0 0 1 2.224 1.45 6.824 6.824 0 0 1 1.504 2.145c.365.815.547 1.69.547 2.628 0 .691-.31 1.667-.93 2.927a36.433 36.433 0 0 1-2.133 3.744c-.802 1.236-1.585 2.308-2.351 3.217C7.82 17.546 7.292 18 7 18c-.292 0-.82-.454-1.586-1.362a32.67 32.67 0 0 1-2.351-3.208A35.71 35.71 0 0 1 .93 9.694C.31 8.434 0 7.454 0 6.75c0-.938.182-1.813.547-2.628A6.824 6.824 0 0 1 2.05 1.978 7.103 7.103 0 0 1 4.275.528 7.02 7.02 0 0 1 7 0c.972 0 1.88.176 2.725.527zm-3.887.712a6.787 6.787 0 0 0-1.12.325c-.34.14-.664.313-.974.518a6.07 6.07 0 0 0-1.585 1.529 5.4 5.4 0 0 0-.537.94 6.2 6.2 0 0 0-.337 1.08c-.079.369-.118.74-.118 1.115 0 .106.04.334.118.685.079.352.282.885.61 1.6.23.503.507 1.041.829 1.615.322.574.67 1.16 1.047 1.757.365.562.732 1.107 1.102 1.634.37.527.732 1.007 1.084 1.44a9.306 9.306 0 0 0 1.038 1.177 7.88 7.88 0 0 0 .419-.448c.17-.193.376-.436.62-.729.34-.433.697-.916 1.074-1.45.376-.532.74-1.08 1.093-1.642.388-.609.743-1.2 1.065-1.774.322-.574.598-1.107.829-1.599.328-.714.531-1.244.61-1.59.079-.345.118-.57.118-.676 0-.374-.04-.746-.118-1.115a6.202 6.202 0 0 0-.337-1.08 5.401 5.401 0 0 0-.537-.94 6.068 6.068 0 0 0-1.585-1.528 5.722 5.722 0 0 0-.974-.519 6.787 6.787 0 0 0-1.12-.325 5.911 5.911 0 0 0-2.314 0z"/></svg>