<svg xmlns="http://www.w3.org/2000/svg" width="18" height="18"><path fill="#aaa8c3" d="M8.6 11.318c-.659 0-1.214-.22-1.666-.662-.451-.441-.677-.995-.677-1.66 0-.653.226-1.204.677-1.651.452-.448 1.007-.671 1.667-.671.659 0 1.214.223 1.666.67.451.448.677.999.677 1.652 0 .665-.226 1.219-.677 1.66-.452.442-1.007.662-1.666.662zM8.606.5C8.043.5 7.48.554 6.917.663c-.55.096-1.085.25-1.605.462a8.766 8.766 0 0 0-1.477.769 8.754 8.754 0 0 0-2.422 2.39c-.306.47-.566.962-.78 1.475a8.475 8.475 0 0 0-.486 1.584A9.272 9.272 0 0 0 0 8.991c0 1.183.22 2.287.66 3.313a8.575 8.575 0 0 0 1.845 2.707 8.704 8.704 0 0 0 2.743 1.82 8.426 8.426 0 0 0 3.357.669c.942 0 1.866-.15 2.771-.453a8.277 8.277 0 0 0 2.477-1.321.744.744 0 0 0 .285-.516.729.729 0 0 0-.138-.57c-.11-.157-.281-.25-.514-.281-.232-.03-.422.009-.569.118a7.657 7.657 0 0 1-2.045 1.086 6.841 6.841 0 0 1-2.267.38 7.076 7.076 0 0 1-4.99-2.028 6.97 6.97 0 0 1-1.505-2.208 6.742 6.742 0 0 1-.55-2.716 6.998 6.998 0 0 1 2.036-4.943A6.793 6.793 0 0 1 5.89 2.555a7.309 7.309 0 0 1 2.715-.516c.98 0 1.897.18 2.753.543a7.076 7.076 0 0 1 2.238 1.485 6.97 6.97 0 0 1 1.505 2.208c.367.845.55 1.75.55 2.716v.778c0 .423-.153.785-.458 1.087a1.512 1.512 0 0 1-1.101.452c-.44 0-.814-.15-1.12-.452a1.472 1.472 0 0 1-.458-1.087v-.778c0-.531-.098-1.032-.294-1.503a4.039 4.039 0 0 0-.835-1.23 3.67 3.67 0 0 0-1.238-.816 3.86 3.86 0 0 0-1.542-.307 3.86 3.86 0 0 0-1.54.307 3.67 3.67 0 0 0-1.24.815c-.348.35-.626.76-.834 1.231a3.873 3.873 0 0 0-.294 1.503c0 .543.098 1.05.294 1.52.208.471.486.882.835 1.232.348.35.761.621 1.238.815.477.205.991.307 1.541.307.588 0 1.129-.123 1.624-.37a4.38 4.38 0 0 0 1.276-.951c.269.386.63.703 1.082.95a3.08 3.08 0 0 0 1.505.371c.856 0 1.59-.304 2.202-.914.611-.61.917-1.337.917-2.182v-.778c0-1.17-.22-2.275-.66-3.313a8.744 8.744 0 0 0-1.845-2.698 8.384 8.384 0 0 0-2.743-1.81A8.417 8.417 0 0 0 8.605.5z"/></svg>