<svg xmlns="http://www.w3.org/2000/svg" width="78" height="78" viewBox="0 0 78 78"><g><g><path fill="#e9e8eb" d="M39.153 39.53v2.876h5.552v2.056h-5.552v5.163h-2.685v-12.15h9.116v2.055zm-6.737 4.136c0 1-.136 1.862-.408 2.586-.333.884-.807 1.6-1.424 2.146-.465.415-1.094.738-1.886.97-.592.171-1.384.257-2.375.257h-5.05v-12.15h4.905c1.106 0 1.95.077 2.53.232.779.21 1.447.583 2.003 1.119s.98 1.192 1.27 1.968c.29.777.435 1.734.435 2.872zm-2.775-.108c0-.939-.09-1.66-.272-2.163-.181-.503-.435-.895-.761-1.177-.327-.281-.74-.472-1.243-.572-.374-.077-1.109-.116-2.203-.116h-1.206v8.048h2.004c.75 0 1.29-.039 1.623-.116.435-.1.796-.268 1.084-.506.287-.237.52-.628.702-1.172.182-.545.272-1.286.272-2.226zm-10.394-2.345c0 .746-.148 1.373-.442 1.881a3.432 3.432 0 0 1-1.123 1.198c-.454.29-.916.482-1.385.576-.637.116-1.56.174-2.77.174h-1.74v4.583h-2.67v-12.15H13.4c1.624 0 2.682.06 3.176.182a3.492 3.492 0 0 1 1.903 1.19c.511.61.767 1.399.767 2.366zm-2.752.033c0-.442-.141-.807-.424-1.094a1.896 1.896 0 0 0-1.073-.539c-.319-.055-.96-.083-1.921-.083h-1.29v3.448h1.461c1.052 0 1.756-.063 2.11-.19.356-.128.634-.326.835-.597a1.54 1.54 0 0 0 .302-.945zM78 23v48.775C78 75.207 75.138 78 71.62 78H23.89c-3.518 0-6.38-2.794-6.38-6.229V59.75H4.773C2.14 59.75 0 57.656 0 55.081V31.708c0-2.575 2.141-4.67 4.773-4.67H17.51V6.24C17.51 2.8 20.372 0 23.89 0h31.43c.432 0 .847.172 1.147.477L77.555 21.92c.285.29.445.678.445 1.08zm-22.286-1.192h17.312L55.714 4.205zm-7.956 34.827c.876 0 1.589-.697 1.589-1.554V31.708c0-.857-.713-1.554-1.589-1.554H4.773c-.876 0-1.59.697-1.59 1.554V55.08c0 .857.713 1.554 1.59 1.554zm27.058-31.712H54.122c-.879 0-1.591-.697-1.591-1.558V3.115H23.889c-1.762 0-3.195 1.402-3.195 3.125v20.798h27.064c2.632 0 4.773 2.095 4.773 4.67V55.08c0 2.575-2.141 4.669-4.773 4.669H20.694v12.021c0 1.717 1.433 3.114 3.195 3.114h47.732c1.762 0 3.195-1.396 3.195-3.11z"/></g></g></svg>