<svg xmlns="http://www.w3.org/2000/svg" width="30" height="30" viewBox="0 0 30 30"><g><g><path fill="#c3c2ca" d="M14.375 14.921v1.173h2.122v.838h-2.122v2.106H13.35v-4.955h3.485v.838zm-1.904 1.687c0 .408-.052.76-.156 1.055-.127.36-.308.652-.544.875-.178.17-.419.301-.721.396-.227.07-.53.104-.909.104H8.209v-4.955h1.877c.423 0 .745.031.967.094.298.086.554.238.766.457.213.218.375.486.486.803.11.316.166.707.166 1.17zm-1.06-.044c0-.383-.035-.677-.105-.882a1.129 1.129 0 0 0-.291-.48.986.986 0 0 0-.475-.234c-.144-.031-.424-.047-.843-.047h-.461v3.282h.766c.287 0 .494-.015.621-.047a.956.956 0 0 0 .414-.206c.11-.097.2-.256.27-.478.069-.222.103-.525.103-.908zm-4.04-.957c0 .305-.057.56-.17.768a1.37 1.37 0 0 1-.432.488 1.506 1.506 0 0 1-.533.235c-.245.047-.6.071-1.064.071h-.67v1.87H3.476v-4.956h1.647c.624 0 1.031.025 1.22.074.292.074.536.236.732.485.197.25.295.57.295.965zm-1.058.014a.63.63 0 0 0-.163-.446.715.715 0 0 0-.413-.22c-.123-.023-.369-.034-.739-.034h-.496v1.406h.562c.405 0 .675-.026.812-.077a.654.654 0 0 0 .437-.629zM30 8.519v19.175C30 28.966 28.936 30 27.628 30H8.882c-1.308 0-2.372-1.035-2.372-2.307V22.5H1.774C.796 22.5 0 21.724 0 20.77v-8.656c0-.954.796-1.73 1.774-1.73H6.51V2.312C6.51 1.037 7.574 0 8.882 0h12.686a.6.6 0 0 1 .426.177l7.84 7.942a.57.57 0 0 1 .166.4zm-8.286-.442h6.437l-6.437-6.52zm-3.958 13.27c.326 0 .59-.259.59-.576v-8.657a.584.584 0 0 0-.59-.576H1.774a.584.584 0 0 0-.59.576v8.657c0 .317.265.575.59.575zM28.816 9.23h-7.694a.585.585 0 0 1-.591-.577v-7.5H8.882c-.655 0-1.188.519-1.188 1.157v8.074h10.062c.979 0 1.775.775 1.775 1.729v8.657c0 .953-.796 1.729-1.775 1.729H7.694v5.193c0 .636.533 1.153 1.188 1.153h18.746c.655 0 1.188-.517 1.188-1.152z"/></g></g></svg>