<svg xmlns="http://www.w3.org/2000/svg" width="104" height="40" viewBox="0 0 104 40"><g><g><g><g><path fill="#2f2874" d="M58.136 13.91c1.147 0 2.028-.327 2.641-.982.614-.655.92-1.797.92-3.427 0-1.577-.306-2.666-.92-3.267-.613-.602-1.494-.902-2.64-.902h-5.284v8.578zM46.937 0h12.227c2.61 0 4.668.702 6.173 2.105s2.257 3.868 2.257 7.396c0 2.485-.42 4.329-1.258 5.532-.84 1.202-1.978 2.11-3.416 2.726l5.513 11.905H62.4l-4.755-10.983-4.794-.75v11.733h-5.914zM32.663 29.664c-2.372 0-4.13-.547-5.277-1.643-1.146-1.096-1.719-2.886-1.719-5.372V0h5.916v21.687c0 1.737.88 2.606 2.639 2.606h9.354v5.371zM0 0h5.916v12.267h2.316L15.509 0h6.316L12.95 14.912l9.116 14.752H15.75L8.232 17.638H5.916v12.026H0z"/></g><g><path fill="#2f2874" d="M80.945 39.963c-.326 0-.58-.078-.761-.235-.182-.156-.273-.423-.273-.8v-4.116h.56v4.038c0 .229.053.386.16.473a.67.67 0 0 0 .433.129h1.845v.51zm-2.568-5.151h.56v5.15h-.56zm-1.904 3.177l-.887-2.687-.902 2.687zm-1.244-3.177h.713l1.76 5.15h-.572l-.517-1.469h-2.069l-.503 1.47h-.573zm-3.798.504h-1.593v-.504h3.732v.504h-1.587v4.647h-.552zm-4.12 4.675c-.293 0-.54-.069-.743-.207-.203-.137-.304-.402-.304-.794v-3.142c0-.364.097-.628.293-.791.196-.163.436-.245.72-.245.745.014 1.325.03 1.74.049l.412.014v.448h-2.012c-.396 0-.594.205-.594.616v1.218l2.299.034v.427l-2.3.035v1.211c0 .238.057.4.168.483.112.084.264.126.455.126h1.984v.448c-.885.047-1.59.07-2.117.07zm-3.252-2.6c.275 0 .488-.074.64-.222.15-.149.226-.43.226-.843 0-.39-.076-.656-.23-.798-.154-.141-.366-.212-.636-.212h-1.384v2.075zm-1.943-2.579h2.02c.4 0 .722.107.966.322.244.215.366.613.366 1.197 0 .499-.093.851-.279 1.056a1.246 1.246 0 0 1-.697.392l1.052 2.184h-.564l-.996-2.107-.384-.007-.926-.02v2.134h-.558zm-6.359 0h.454l2.684 4.192v-4.192h.552v5.15h-.454l-2.684-4.191v4.192h-.552zm-1.631 0h.549v5.15h-.55zm-4.662 3.443l-1.635-3.443h.58l1.342 2.883 1.342-2.883h.559l-1.628 3.443v1.708h-.56zm-4.028-2.94h-1.593v-.503h3.731v.504h-1.586v4.647h-.552zm-3.505 4.648c-.326 0-.58-.078-.761-.235-.182-.156-.273-.423-.273-.8v-4.116h.56v4.038c0 .229.053.386.16.473a.67.67 0 0 0 .433.129h1.845v.51zm-2.938-1.974l-.888-2.687-.901 2.687zm-1.244-3.177h.713l1.76 5.15h-.572l-.517-1.469h-2.069l-.503 1.47h-.573zm-3.952 3.443l-1.635-3.443h.58l1.342 2.883 1.342-2.883h.559l-1.629 3.443v1.708h-.559zm-4.07 1.253c.373 0 .658-.051.856-.154.198-.103.344-.303.437-.602.093-.298.14-.746.14-1.344 0-.62-.047-1.082-.14-1.385-.093-.304-.24-.505-.437-.606-.198-.1-.483-.15-.856-.15-.354 0-.631.05-.832.15-.2.1-.35.305-.45.613-.1.308-.15.767-.15 1.378 0 .602.044 1.051.132 1.348.089.296.232.495.43.598.198.103.488.154.87.154zm0 .497c-.485 0-.865-.064-1.143-.193-.277-.128-.486-.377-.629-.748-.142-.371-.213-.923-.213-1.656 0-.727.074-1.281.22-1.662.147-.38.36-.638.64-.773s.654-.203 1.125-.203c.484 0 .866.066 1.146.2.28.132.49.389.629.77.14.38.21.936.21 1.668 0 .733-.072 1.285-.214 1.656-.142.37-.351.62-.629.748-.277.129-.658.193-1.142.193zm-4.41-.042c-.324 0-.578-.078-.759-.235-.18-.156-.271-.423-.271-.8v-4.116h.557v4.038c0 .229.053.386.16.473.107.086.25.129.432.129h1.839v.51zm-5.654-.455c.371 0 .655-.051.853-.154.197-.103.342-.303.435-.602.093-.298.14-.746.14-1.344 0-.62-.047-1.082-.14-1.385-.093-.304-.238-.505-.435-.606-.198-.1-.482-.15-.853-.15-.353 0-.63.05-.829.15-.2.1-.35.305-.45.613-.099.308-.149.767-.149 1.378 0 .602.044 1.051.132 1.348.089.296.231.495.429.598.197.103.486.154.867.154zm.005.497c-.485 0-.866-.064-1.143-.193-.277-.128-.487-.377-.629-.748-.142-.371-.213-.923-.213-1.656 0-.727.073-1.281.22-1.662.147-.38.36-.638.64-.773s.654-.203 1.125-.203c.484 0 .866.066 1.146.2.28.132.489.389.629.77.14.38.21.936.21 1.668 0 .733-.072 1.285-.214 1.656-.142.37-.352.62-.629.748-.277.129-.658.193-1.142.193zm-4.507-4.69h-1.597v-.503h3.741v.504h-1.59v4.647h-.554zm-5.828 2.94l-1.64-3.443h.582l1.346 2.883 1.345-2.883h.56l-1.632 3.443v1.708h-.56zm-4.301 1.736c-.293 0-.54-.069-.742-.207-.202-.137-.303-.402-.303-.794v-3.142c0-.364.097-.628.292-.791a1.08 1.08 0 0 1 .718-.245c.743.014 1.32.03 1.734.049l.411.014v.448H5.136c-.395 0-.592.205-.592.616v1.218l2.292.034v.427l-2.292.035v1.211c0 .238.056.4.167.483.112.084.262.126.453.126h1.978v.448c-.882.047-1.586.07-2.11.07zM0 34.812h.559v2.33h.901l1.412-2.33h.587l-1.558 2.575 1.579 2.576h-.594L1.46 37.646H.56v2.317H0z"/></g><g><path fill="#f9b000" d="M91.813 16.194a5.028 5.028 0 0 0 5.023-5.033 5.028 5.028 0 0 0-5.023-5.034 5.028 5.028 0 0 0-5.023 5.034 5.028 5.028 0 0 0 5.023 5.033zm-11.184-5.033C80.629 5.008 85.636.02 91.813.02s11.184 4.988 11.184 11.14c0 6.154-5.007 11.142-11.184 11.142S80.629 17.314 80.629 11.16zM73.53 24.65a5.028 5.028 0 0 1 5.023-5.034 5.028 5.028 0 0 1 5.023 5.034 5.028 5.028 0 0 1-5.023 5.033 5.028 5.028 0 0 1-5.023-5.033z"/></g></g></g></g></svg>