<svg xmlns="http://www.w3.org/2000/svg" width="104" height="40"><path fill="#fff" d="M58.255 13.91c1.148 0 2.03-.327 2.644-.982.614-.655.921-1.797.921-3.427 0-1.577-.307-2.666-.92-3.267-.615-.602-1.497-.902-2.645-.902h-5.288v8.578zM47.038 0h12.259c2.617 0 4.68.702 6.189 2.105 1.509 1.403 2.263 3.868 2.263 7.396 0 2.485-.42 4.329-1.262 5.532-.84 1.202-1.983 2.11-3.425 2.726l5.529 11.905h-6.05l-4.767-10.983-4.807-.75v11.733h-5.929zM32.733 29.664c-2.377 0-4.14-.547-5.288-1.643-1.148-1.096-1.723-2.886-1.723-5.372V0h5.93v21.687c0 1.737.88 2.606 2.643 2.606h9.374v5.371zM0 0h5.929v12.267h2.32L15.544 0h6.33l-8.896 14.912 9.136 14.752h-6.33L8.25 17.638H5.929v12.026H0zm81.123 39.963c-.328 0-.583-.078-.766-.235-.183-.156-.274-.423-.274-.8v-4.116h.562v4.038c0 .229.054.386.162.473.107.086.253.129.435.129h1.855v.51zm-2.577-5.151h.56v5.15h-.56zm-1.898 3.177-.895-2.687-.908 2.687zm-1.257-3.177h.714l1.765 5.15h-.574l-.518-1.469h-2.073l-.505 1.47h-.574zm-3.806.504h-1.597v-.504h3.74v.504h-1.59v4.647h-.553zm-4.128 4.675c-.295 0-.543-.069-.746-.207-.203-.137-.305-.402-.305-.794v-3.142c0-.364.098-.628.294-.791a1.09 1.09 0 0 1 .722-.245c.747.014 1.328.03 1.743.049l.413.014v.448h-2.016c-.397 0-.596.205-.596.616v1.218l2.304.034v.427l-2.304.035v1.211c0 .238.056.4.168.483.112.084.264.126.456.126h1.988v.448a42.51 42.51 0 0 1-2.121.07zm-3.26-2.6c.275 0 .489-.074.64-.222.152-.149.228-.43.228-.843 0-.39-.077-.656-.231-.798-.154-.141-.367-.212-.637-.212H62.81v2.075zm-1.947-2.579h2.03c.402 0 .725.107.97.322.246.215.368.613.368 1.197 0 .499-.093.851-.28 1.056a1.25 1.25 0 0 1-.7.392l1.057 2.184h-.567l-1.001-2.107-.386-.007-.931-.02v2.134h-.56zm-6.373 0h.454l2.682 4.192v-4.192h.552v5.15h-.454l-2.682-4.191v4.192h-.552zm-1.635 0h.56v5.15h-.56zm-4.671 3.443-1.639-3.443h.581l1.345 2.883 1.345-2.883h.56l-1.632 3.443v1.708h-.56zm-4.037-2.94h-1.597v-.503h3.74v.504h-1.59v4.647h-.553zm-3.512 4.648c-.327 0-.582-.078-.764-.235-.182-.156-.273-.423-.273-.8v-4.116h.56v4.038c0 .229.054.386.161.473a.679.679 0 0 0 .435.129h1.848v.51zm-2.935-1.974-.895-2.687-.908 2.687zm-1.257-3.177h.715l1.764 5.15h-.574l-.518-1.469h-2.073l-.504 1.47h-.574zm-3.96 3.443-1.639-3.443h.582l1.344 2.883 1.345-2.883h.56l-1.632 3.443v1.708h-.56zm-4.08 1.253c.374 0 .66-.051.859-.154.198-.103.344-.303.437-.602.094-.298.14-.746.14-1.344 0-.62-.046-1.082-.14-1.385-.093-.304-.239-.505-.437-.606-.199-.1-.485-.15-.858-.15-.355 0-.633.05-.834.15-.2.1-.35.305-.451.613-.1.308-.15.767-.15 1.378 0 .602.044 1.051.132 1.348.089.296.233.495.43.598.2.103.49.154.873.154zm0 .497c-.485 0-.866-.064-1.144-.193-.278-.128-.488-.377-.63-.748-.143-.371-.214-.923-.214-1.656 0-.727.073-1.281.22-1.662.148-.38.361-.638.641-.773s.656-.203 1.128-.203c.485 0 .868.066 1.148.2.28.132.49.389.63.77.14.38.21.936.21 1.668 0 .733-.07 1.285-.213 1.656-.142.37-.352.62-.63.748-.278.129-.66.193-1.145.193zm-4.415-.042c-.326 0-.58-.078-.763-.235-.182-.156-.273-.423-.273-.8v-4.116h.56v4.038c0 .229.054.386.161.473a.676.676 0 0 0 .434.129h1.85v.51zm-5.66-.455c.375 0 .662-.051.86-.154.2-.103.346-.303.44-.602.094-.298.14-.746.14-1.344 0-.62-.046-1.082-.14-1.385-.094-.304-.24-.505-.44-.606-.198-.1-.485-.15-.86-.15-.356 0-.635.05-.836.15-.202.1-.353.305-.454.613-.1.308-.15.767-.15 1.378 0 .602.044 1.051.133 1.348.089.296.233.495.432.598.2.103.49.154.875.154zm-.005.497c-.486 0-.867-.064-1.145-.193-.278-.128-.488-.377-.63-.748-.143-.371-.214-.923-.214-1.656 0-.727.074-1.281.22-1.662.148-.38.361-.638.641-.773s.656-.203 1.128-.203c.486 0 .868.066 1.148.2.28.132.49.389.63.77.14.38.21.936.21 1.668 0 .733-.07 1.285-.213 1.656-.142.37-.352.62-.63.748-.278.129-.66.193-1.145.193zm-4.52-4.69h-1.597v-.503h3.74v.504h-1.59v4.647h-.553zm-5.841 2.94L7.71 34.812h.582l1.344 2.883 1.345-2.883h.56l-1.632 3.443v1.708h-.56zm-4.303 1.736c-.294 0-.543-.069-.746-.207-.203-.137-.305-.402-.305-.794v-3.142c0-.364.098-.628.294-.791a1.09 1.09 0 0 1 .722-.245c.747.014 1.328.03 1.743.049l.414.014v.448H5.15c-.397 0-.596.205-.596.616v1.218l2.304.034v.427l-2.304.035v1.211c0 .238.056.4.169.483.112.084.263.126.455.126h1.989v.448a42.51 42.51 0 0 1-2.122.07zM0 34.812h.56v2.33h.904l1.414-2.33h.588l-1.561 2.575 1.583 2.576h-.596l-1.428-2.317H.56v2.317H0z"/><path fill="#f9b000" d="M92.012 16.194a5.034 5.034 0 1 0 0-10.067 5.034 5.034 0 0 0 0 10.067zm-11.208-5.033C80.804 5.008 85.822.02 92.012.02s11.208 4.988 11.208 11.14c0 6.154-5.018 11.142-11.208 11.142S80.804 17.314 80.804 11.16zM73.69 24.65a5.034 5.034 0 1 1 10.067 0 5.034 5.034 0 0 1-10.067 0z"/></svg>