<?xml version="1.0" encoding="UTF-8"?>
<svg id="SVGDoc" width="24" height="18" xmlns="http://www.w3.org/2000/svg" version="1.1" xmlns:xlink="http://www.w3.org/1999/xlink" xmlns:avocode="https://avocode.com/" viewBox="0 0 24 18"><defs></defs><desc>Generated with Avocode.</desc><g><g><title>icon-menu</title><path d="M0,1c0,-0.55228 0.44772,-1 1,-1h22c0.55228,0 1,0.44772 1,1v1.02344c0,0.55228 -0.44772,1 -1,1h-22c-0.55228,0 -1,-0.44772 -1,-1zM1,10.48659c-0.55228,0 -1,-0.44772 -1,-1v-0.96314c0,-0.55228 0.44772,-1 1,-1h22c0.55228,0 1,0.44772 1,1v0.96314c0,0.55228 -0.44772,1 -1,1zM1,18c-0.55228,0 -1,-0.44772 -1,-1v-1.02344c0,-0.55228 0.44772,-1 1,-1h22c0.55228,0 1,0.44772 1,1v1.02344c0,0.55228 -0.44772,1 -1,1z" fill="#211e3f" fill-opacity="1"></path></g></g></svg>
